DataType=double
version=3
OpenSimVersion=4.5
endheader
time	ground_force_1_vx	ground_force_1_vy	ground_force_1_vz	ground_force_1_px	ground_force_1_py	ground_force_1_pz	ground_moment_1_mx	ground_moment_1_my	ground_moment_1_mz
2.21	97.51872098873864	685.9994906934519	37.09582266897826	0.5649202633790869	0.006637299061187014	0.4024746915431542	-11.21942924857838	-0.0550073336378627	30.4250005834433
2.215	101.4625201518272	682.37985604143	36.74386139778201	0.5598467058072849	0.006637299061187014	0.4021539186161254	-11.63331079439278	0.1200934923049047	29.95603406534682
2.22	105.2056571743928	677.3534579318307	36.28896099014568	0.5548312521549577	0.006637299061187014	0.4018174259611504	-12.01077111587504	0.3045392794020557	29.4011799250994
2.225	108.6909256528395	670.7944911194948	35.72605212776926	0.5498800872245692	0.006637299061187014	0.4014670256058002	-12.34364735008853	0.4958493256195607	28.75771054143599
2.23	111.8568341745805	662.5888459027937	35.04943407181484	0.5450000885384612	0.006637299061187014	0.4011052943748225	-12.62392910123155	0.6910844059371796	28.0239418379417
2.235	114.6389659538513	652.6376649720273	34.25253218553922	0.5401988573250748	0.006637299061187014	0.4007356031687044	-12.84405164049627	0.8869478163453927	27.19936600357279
2.24	116.9716273746095	640.8600798706282	33.32808040616418	0.5354847447755929	0.006637299061187014	0.4003621244368099	-12.99721618128481	1.079903588267837	26.2847767977128
2.245	118.7896433928696	627.1946364074574	32.26879255550511	0.5308668737004241	0.006637299061187014	0.3999898148597527	-13.07773657620999	1.266305938012379	25.28237516041838
2.25	120.0302157707534	611.5996179730147	31.0684423352154	0.5263551557829522	0.006637299061187014	0.3996243708142477	-13.08139012846781	1.442532738990722	24.19584474647217
2.255	120.634929136865	594.0537281634099	29.72318911320794	0.5219603045914414	0.006637299061187014	0.399272154956125	-13.00570749579591	1.605111753269376	23.03039803086855
2.26	120.5520548722667	574.5590217561208	28.2329734133657	0.517693844352471	0.006637299061187014	0.3989400932229115	-12.85012180548529	1.750828281800977	21.79279714321815
2.265	119.7391132036747	553.1464712742699	26.60280702341374	0.5135681142056778	0.006637299061187014	0.3986355427116826	-12.61595191150309	1.876811986289097	20.49134220811353
2.27	118.1654331345825	529.8825826892535	24.84377881482339	0.5095962672593514	0.006637299061187014	0.3983661321994388	-12.30626673692873	1.980610257987784	19.13581074243931
2.275	115.8144548205558	504.8750594029977	22.97360684799913	0.5057922632754681	0.006637299061187014	0.3981395784928643	-11.92569122329167	2.060255460873995	17.73733867928518
2.28	112.685651996397	478.2762853164668	21.01659047258691	0.5021708532736475	0.006637299061187014	0.3979634832549091	-11.4801822678512	2.114326850349761	16.30824783497657
2.285	108.7960100712501	450.2839892716056	19.00284252505959	0.4987475538146883	0.006637299061187014	0.3978451163742372	-10.97677568313932	2.142002350116079	14.86183440650785
2.29	104.1809330478495	421.1385558890049	16.96673037664865	0.4955386082754298	0.006637299061187014	0.3977911932251025	-10.42329454533315	2.14309157986792	13.41213838761603
2.295	98.8942950468842	391.1163507506166	14.94458173773591	0.4925609321316154	0.006637299061187014	0.3978076542082359	-9.828006328685314	2.118037497839153	11.97371772315668
2.3	93.0072334973209	360.5186042476857	12.97193862511911	0.4898320391959544	0.006637299061187014	0.3978994556674718	-9.199232355369613	2.067874898369813	10.56145026855462
2.305	86.60562633308977	329.6570374385836	11.0808863549107	0.4873699459748382	0.006637299061187014	0.3980703815515058	-8.544988436534126	1.994156271099842	9.190361346678705
2.31	79.78716402585891	298.8407988304557	9.298097408680853	0.4851930518478807	0.006637299061187014	0.3983228849638089	-7.872816205732511	1.898888215925683	7.875407101008768
2.315	72.65936639278952	268.3702147880799	7.644030608432182	0.4833199936495245	0.006637299061187014	0.3986579679728724	-7.189880952106651	1.784511978823527	6.631090674222581
2.32	65.33866017302572	238.5373571397984	6.133188615031242	0.4817694744166999	0.006637299061187014	0.3990751067320214	-6.503217604617429	1.653912674962864	5.47084669131531
2.325	57.94909429135249	209.6270761813902	4.774883407668383	0.4805600675003618	0.006637299061187014	0.3995722271166405	-5.819956413211387	1.510421868550312	4.406264936930818
2.33	50.61950518174844	181.9130103813916	3.573990012399136	0.4797099988279449	0.006637299061187014	0.4001457338038075	-5.147448238792313	1.357794727172484	3.44631103042974
2.335	43.47950793494527	155.6492822918243	2.531500185870575	0.4792369117282678	0.006637299061187014	0.4007905931136313	-4.493263718669008	1.200151908280488	2.596710575430504
2.34	36.65535499072099	131.0623618617324	1.644911038516632	0.4791576202556894	0.006637299061187014	0.4015004671570276	-3.86504888546095	1.041867410970019	1.859616069186383
2.345	30.26450112769028	108.3453183180026	0.9084025540804106	0.4794878582412431	0.006637299061187014	0.4022678940703652	-3.270241135032085	0.8873404435528143	1.233592563280105
2.35	24.40561870174158	87.6525744707811	0.3127762909884488	0.4802420322336574	0.006637299061187014	0.4030845065539013	-2.715677587346267	0.7405711125718146	0.7139032753044057
2.355	19.14619934128927	69.09271075946407	-0.1543553936333915	0.4814329869790842	0.006637299061187014	0.4039412787539752	-2.207132538736684	0.6046557447069847	0.2930784736497032
2.36	14.51710117092646	52.71952367560618	-0.5075847363728414	0.483071792067738	0.006637299061187014	0.4048287899032189	-1.748835413788443	0.4815400522698913	-0.03826449500021534
2.365	10.51799274463706	38.52547622002521	-0.7622847975143543	0.4851675578319881	0.006637299061187014	0.4057374921869813	-1.343107883086075	0.3721607485965283	-0.2904937673429508
2.37	7.12696637200172	26.44329539255318	-0.93351250598635	0.4877272875401418	0.006637299061187014	0.406657970117242	-0.9903049150286873	0.276736736424428	-0.4741767467674876
2.375	4.307888542643813	16.35647708435516	-1.035441443834745	0.4907557714552905	0.006637299061187014	0.407581179290701	-0.6890785101678751	0.1949876258380592	-0.599580401230263
2.38	2.015179665179132	8.113388195901791	-1.081097258186588	0.4942555265061518	0.006637299061187014	0.4084986537499441	-0.436783023551413	0.126270694345161	-0.6763943328166138
2.385	0.1974534901769736	1.540217829465234	-1.082218556658585	0.4982267832497977	0.006637299061187014	0.4094026731641165	-0.2298610745176117	0.06968592217183167	-0.7135625689581759
2.39	-1.199517078248484	-3.548396214393506	-1.049190883372603	0.5026675196012695	0.006637299061187014	0.4102863835590134	-0.064168107634623	0.02416436157176993	-0.719178335620507
2.395	-2.230439033649503	-7.340866908011208	-0.9910384362186591	0.5075735385622355	0.006637299061187014	0.4111438681808385	0.06476061668961242	-0.01145888657177202	-0.7004299961491276
2.4	-2.948675563350653	-10.02205161177659	-0.9154602753392993	0.512938584988524	0.006637299061187014	0.4119701680766831	0.1614954782833631	-0.0383857711005422	-0.663587895963335
2.405	-3.404891021252879	-11.7683028829357	-0.8288994873918192	0.5187544943694674	0.006637299061187014	0.4127612549161761	0.2305448351134154	-0.05780901452760906	-0.6140229837556863
2.41	-3.64609740355363	-12.74394308600938	-0.7366354427424504	0.5250113647121535	0.006637299061187014	0.4135139612711956	0.2762285150781079	-0.07087695733780985	-0.5562492254424358
2.415	-3.715038291039417	-13.09893954394988	-0.6428908686791743	0.5316977409823236	0.006637299061187014	0.4142258758472381	0.3025867881903892	-0.07866802127218625	-0.4939829445708648
2.42	-3.649850604752859	-12.96757179014048	-0.5509469319583644	0.5388008001970859	0.006637299061187014	0.4148952128908324	0.3133193645530836	-0.0821733398907909	-0.4302132863938379
2.425	-3.483949746071149	-12.46790035247659	-0.4632608624489869	0.5463065242387648	0.006637299061187014	0.4155206660970084	0.3117493013409405	-0.08228618823410883	-0.3672789993581624
2.43	-3.246089409607235	-11.70186610932279	-0.3815818469514625	0.5541998468119004	0.006637299061187014	0.4161012577732964	0.3008071204268421	-0.07979695038650447	-0.306947645714218
